<?xml version="1.0" encoding="utf-8"?>
<!-- Generator: Adobe Illustrator 25.3.1, SVG Export Plug-In . SVG Version: 6.00 Build 0)  -->
<svg version="1.1" id="Capa_1" xmlns="http://www.w3.org/2000/svg" xmlns:xlink="http://www.w3.org/1999/xlink" x="0px" y="0px"
	 viewBox="0 0 24 24" style="enable-background:new 0 0 24 24;" xml:space="preserve">
<style type="text/css">
	.st0{fill-rule:evenodd;clip-rule:evenodd;fill:#00416A;}
</style>
<path class="st0" d="M12,15.6c2,0,11-7.1,11-7.1l0,11c0,1-0.8,1.8-1.8,1.8H2.8c-1,0-1.8-0.8-1.8-1.8l0-11C1,8.5,10.2,15.6,12,15.6z
	 M12,13.1c-1.8,0-11-7.4-11-7.4V4.8C1,3.8,1.8,3,2.8,3h18.3c1,0,1.8,0.8,1.8,1.8l0,0.9C23,5.7,13.9,13.1,12,13.1z"/>
</svg>
