<?xml version="1.0" encoding="utf-8"?>
<!-- Generator: Adobe Illustrator 25.3.1, SVG Export Plug-In . SVG Version: 6.00 Build 0)  -->
<svg version="1.1" id="Capa_1" xmlns="http://www.w3.org/2000/svg" xmlns:xlink="http://www.w3.org/1999/xlink" x="0px" y="0px"
	 viewBox="0 0 8.7 10.5" style="enable-background:new 0 0 8.7 10.5;" xml:space="preserve">
<style type="text/css">
	.st0{fill:#00416A;}
</style>
<g>
	<path class="st0" d="M4,2.6c0.2,0,0.3,0,0.5,0.1C4.7,2.8,4.8,2.9,5,3c0.1,0.1,0.2,0.3,0.3,0.4c0.1,0.2,0.1,0.3,0.1,0.5
		c0,0.2,0,0.3-0.1,0.5C5.2,4.6,5.1,4.7,5,4.9C4.8,5,4.7,5.1,4.5,5.1C4.4,5.2,4.2,5.2,4,5.2c-0.2,0-0.3,0-0.5-0.1
		C3.4,5.1,3.2,5,3.1,4.9C3,4.7,2.9,4.6,2.8,4.4C2.8,4.3,2.7,4.1,2.7,3.9c0-0.2,0-0.3,0.1-0.5C2.9,3.3,3,3.1,3.1,3
		c0.1-0.1,0.3-0.2,0.4-0.3C3.7,2.7,3.9,2.6,4,2.6z"/>
	<path class="st0" d="M4,6.1c-1.2,0-2.2-1-2.2-2.2c0-1.2,1-2.2,2.2-2.2c1.2,0,2.2,1,2.2,2.2C6.2,5.1,5.2,6.1,4,6.1z M4,0
		C1.8,0,0,1.8,0,4c0,3.2,3,6.4,4,6.4c1.3,0,4-3.2,4-6.4C8.1,1.8,6.3,0,4,0L4,0z"/>
</g>
</svg>
