<?xml version="1.0" encoding="utf-8"?>
<!-- Generator: Adobe Illustrator 25.3.1, SVG Export Plug-In . SVG Version: 6.00 Build 0)  -->
<svg version="1.1" id="Capa_1" xmlns="http://www.w3.org/2000/svg" xmlns:xlink="http://www.w3.org/1999/xlink" x="0px" y="0px"
	 viewBox="0 0 40 40" style="enable-background:new 0 0 40 40;" xml:space="preserve">
<style type="text/css">
	.st0{fill:#FFFFFF;}
	.st1{fill:#00416A;}
</style>
<rect x="5.9" y="5.9" transform="matrix(0.7071 -0.7071 0.7071 0.7071 -8.2843 20)" class="st0" width="28.3" height="28.3"/>
<path class="st1" d="M26.3,20.3c-0.5-0.5-1.3-0.5-1.8,0l-3,3v-9.8c0-0.7-0.6-1.3-1.3-1.3c-0.7,0-1.3,0.6-1.3,1.3v9.8l-3-3
	c-0.5-0.5-1.3-0.5-1.8,0c-0.5,0.5-0.5,1.3,0,1.8l6.1,6.1l6.1-6.1C26.8,21.6,26.8,20.8,26.3,20.3z"/>
</svg>
