<?xml version="1.0" encoding="utf-8"?>
<!-- Generator: Adobe Illustrator 25.3.1, SVG Export Plug-In . SVG Version: 6.00 Build 0)  -->
<svg version="1.1" id="Capa_1" xmlns="http://www.w3.org/2000/svg" xmlns:xlink="http://www.w3.org/1999/xlink" x="0px" y="0px"
	 viewBox="0 0 104 24" style="enable-background:new 0 0 104 24;" xml:space="preserve">
<style type="text/css">
	.st0{fill:#FFFFFF;}
	.st1{fill:#00416A;}
	.st2{fill:#99B3C3;}
	.st3{fill:#CCD9E1;}
	.st4{fill:#668DA6;}
</style>
<path class="st0" d="M37.2,11.9h-4.5V7.2h4.5c0.7,0,1.2,0.3,1.7,0.7c0.4,0.4,0.7,1,0.7,1.7C39.5,10.8,38.5,11.9,37.2,11.9z
	 M36.8,4.1c-2.4,0-4.8,0-7.2,0v15.2h2.9v-4.5h4.3C44.3,14.9,44.3,4.1,36.8,4.1z"/>
<path class="st0" d="M45.8,8.6L46,9.9c0.8-1.3,1.9-1.5,3-1.5c1.1,0,2.2,0.4,2.8,1l-1.2,2.3c-0.5-0.5-1-0.7-1.9-0.7
	c-1.4,0-2.7,0.7-2.7,2.7v5.7h-2.7V8.6H45.8z"/>
<path class="st0" d="M54.1,14c0,1.6,1,3.2,2.9,3.2c1.9,0,2.9-1.5,2.9-3.2c0-1.6-1.1-3.2-2.9-3.2C55.1,10.8,54.1,12.4,54.1,14z
	 M62.6,14c0,3.1-2.1,5.6-5.6,5.6c-3.5,0-5.6-2.5-5.6-5.6c0-3.1,2.1-5.6,5.5-5.6C60.4,8.4,62.6,11,62.6,14z"/>
<rect x="63.5" y="4.2" class="st0" width="2.6" height="15.2"/>
<path class="st0" d="M70.4,8.6v5.6c0,1.6,0.9,2.9,2.6,2.9c1.6,0,2.7-1.4,2.7-3V8.6h2.6v10.8H76l-0.2-1.5c-1.1,1.1-2.1,1.6-3.6,1.6
	c-2.6,0-4.4-1.9-4.4-5.3V8.6H70.4z"/>
<path class="st0" d="M82.6,14c0,1.9,1.4,3.2,3.1,3.2c1.7,0,3-1.3,3-3.2c0-1.9-1.3-3.1-3-3.1C84.1,10.9,82.6,12.1,82.6,14z M82.5,4.2
	v5.9C83.1,9,84.9,8.4,86,8.4c3.1,0,5.5,1.9,5.5,5.6c0,3.5-2.4,5.6-5.5,5.6c-1.3,0-2.6-0.4-3.5-1.7l-0.2,1.5h-2.5V4.2H82.5z"/>
<path class="st0" d="M95,8.6l0.2,1.2c0.8-1.3,1.9-1.5,3-1.5c1.1,0,2.2,0.4,2.8,1l-1.2,2.3c-0.5-0.5-1-0.7-1.9-0.7
	c-1.4,0-2.7,0.7-2.7,2.7v5.7h-2.7V8.6H95z"/>
<path class="st0" d="M101.1,8.6v10.8h2.7V8.6H101.1z M104,5.6c0,2.1-3.1,2.1-3.1,0C100.9,3.6,104,3.6,104,5.6z"/>
<polygon class="st1" points="15.1,20.1 11.8,23.3 8.6,20.1 "/>
<rect x="3.5" y="3.5" class="st2" width="8.4" height="8.4"/>
<polygon class="st3" points="11.8,11.8 5.9,17.8 3.5,15.3 0,11.8 3.5,8.4 3.5,11.8 "/>
<polygon class="st4" points="11.8,11.8 11.8,20.2 3.5,20.2 3.5,15.3 5.9,17.8 "/>
<rect x="11.8" y="11.8" class="st2" width="8.4" height="8.4"/>
<polygon class="st3" points="20.2,15.3 20.2,11.8 11.8,11.8 17.8,5.9 20.2,8.4 23.7,11.8 "/>
<polygon class="st4" points="20.2,3.5 20.2,8.4 17.8,5.9 11.8,11.8 11.8,3.5 "/>
<polygon class="st1" points="15.3,3.5 8.4,3.5 11.8,0 "/>
</svg>
